{
  "accessors": [
    {
      "bufferView": 3,
      "componentType": 5126,
      "count": 2055,
      "max": [
        0.6117508411407471,
        1.8541871309280396,
        0.3415285050868988
      ],
      "min": [
        -0.6117508411407471,
        0.0011252999538555741,
        -0.3234894573688507
      ],
      "type": "VEC3"
    },
    {
      "bufferView": 3,
      "byteOffset": 24660,
      "componentType": 5126,
      "count": 2055,
      "max": [
        0.9999140501022339,
        0.9813940525054932,
        0.9998596906661987
      ],
      "min": [
        -0.9999140501022339,
        -1.0,
        -0.9999864101409912
      ],
      "type": "VEC3"
    },
    {
      "bufferView": 2,
      "componentType": 5126,
      "count": 2055,
      "max": [
        0.9933900237083435,
        0.6699000000953674
      ],
      "min": [
        0.0044999998062849045,
        0.004399999976158142
      ],
      "type": "VEC2"
    },
    {
      "bufferView": 1,
      "componentType": 5125,
      "count": 8754,
      "type": "SCALAR"
    },
    {
      "bufferView": 3,
      "byteOffset": 49320,
      "componentType": 5126,
      "count": 1804,
      "max": [
        0.13101063668727875,
        2.7954466342926025,
        0.2097693383693695
      ],
      "min": [
        -0.13101063668727875,
        2.5296802520751953,
        -0.03430914133787155
      ],
      "type": "VEC3"
    },
    {
      "bufferView": 3,
      "byteOffset": 70968,
      "componentType": 5126,
      "count": 1804,
      "max": [
        0.9983904361724854,
        0.9998905658721924,
        0.9999769926071167
      ],
      "min": [
        -0.9961440563201904,
        -0.9991796612739563,
        -0.999478280544281
      ],
      "type": "VEC3"
    },
    {
      "bufferView": 2,
      "byteOffset": 16440,
      "componentType": 5126,
      "count": 1804,
      "max": [
        0.9933000206947327,
        0.9945999979972839
      ],
      "min": [
        0.009600000455975533,
        0.013399999588727951
      ],
      "type": "VEC2"
    },
    {
      "bufferView": 1,
      "byteOffset": 35016,
      "componentType": 5125,
      "count": 8529,
      "type": "SCALAR"
    },
    {
      "bufferView": 3,
      "byteOffset": 92616,
      "componentType": 5126,
      "count": 1688,
      "max": [
        0.14225433766841888,
        2.901881217956543,
        0.20508161187171936
      ],
      "min": [
        -0.1564679890871048,
        2.5434255599975586,
        -0.1232236698269844
      ],
      "type": "VEC3"
    },
    {
      "bufferView": 3,
      "byteOffset": 112872,
      "componentType": 5126,
      "count": 1688,
      "max": [
        0.9913420081138611,
        0.9255390167236328,
        0.9965858459472656
      ],
      "min": [
        -0.9926978945732117,
        0.07874197512865067,
        -0.9959182143211365
      ],
      "type": "VEC3"
    },
    {
      "bufferView": 2,
      "byteOffset": 30872,
      "componentType": 5126,
      "count": 1688,
      "max": [
        0.9975000023841858,
        0.9926999807357788
      ],
      "min": [
        0.008500000461935997,
        0.1632000058889389
      ],
      "type": "VEC2"
    },
    {
      "bufferView": 1,
      "byteOffset": 69132,
      "componentType": 5125,
      "count": 6969,
      "type": "SCALAR"
    },
    {
      "bufferView": 3,
      "byteOffset": 133128,
      "componentType": 5126,
      "count": 3968,
      "max": [
        0.9769231677055359,
        2.6675686836242676,
        0.24726127088069916
      ],
      "min": [
        -0.9769231677055359,
        0.08485830575227737,
        -0.209110826253891
      ],
      "type": "VEC3"
    },
    {
      "bufferView": 3,
      "byteOffset": 180744,
      "componentType": 5126,
      "count": 3968,
      "max": [
        0.9988967180252075,
        0.9967783093452454,
        0.9999799728393555
      ],
      "min": [
        -0.9988967180252075,
        -0.9862370491027832,
        -0.9999147653579712
      ],
      "type": "VEC3"
    },
    {
      "bufferView": 2,
      "byteOffset": 44376,
      "componentType": 5126,
      "count": 3968,
      "max": [
        0.9981589913368225,
        0.9973400235176086
      ],
      "min": [
        0.37389999628067017,
        0.0032770000398159027
      ],
      "type": "VEC2"
    },
    {
      "bufferView": 1,
      "byteOffset": 97008,
      "componentType": 5125,
      "count": 19464,
      "type": "SCALAR"
    },
    {
      "bufferView": 3,
      "byteOffset": 228360,
      "componentType": 5126,
      "count": 549,
      "max": [
        0.8548369407653809,
        0.05599238723516464,
        1.8065745830535889
      ],
      "min": [
        0.61677485704422,
        -0.055992405861616135,
        0.835145890712738
      ],
      "type": "VEC3"
    },
    {
      "bufferView": 3,
      "byteOffset": 234948,
      "componentType": 5126,
      "count": 549,
      "max": [
        1.0,
        1.0,
        1.0
      ],
      "min": [
        -1.0,
        -1.0,
        -1.0
      ],
      "type": "VEC3"
    },
    {
      "bufferView": 2,
      "byteOffset": 76120,
      "componentType": 5126,
      "count": 549,
      "max": [
        0.9945499897003174,
        0.7937905788421631
      ],
      "min": [
        0.41761523485183716,
        0.007942595519125462
      ],
      "type": "VEC2"
    },
    {
      "bufferView": 1,
      "byteOffset": 174864,
      "componentType": 5125,
      "count": 1446,
      "type": "SCALAR"
    },
    {
      "bufferView": 3,
      "byteOffset": 241536,
      "componentType": 5126,
      "count": 1042,
      "max": [
        1.6018309593200684,
        0.12860044836997986,
        3.561910629272461
      ],
      "min": [
        1.2645676136016846,
        -0.11565518379211426,
        1.146682858467102
      ],
      "type": "VEC3"
    },
    {
      "bufferView": 3,
      "byteOffset": 254040,
      "componentType": 5126,
      "count": 1042,
      "max": [
        0.9999500513076782,
        1.0,
        1.0
      ],
      "min": [
        -0.9999988079071045,
        -1.0,
        -1.0
      ],
      "type": "VEC3"
    },
    {
      "bufferView": 2,
      "byteOffset": 80512,
      "componentType": 5126,
      "count": 1042,
      "max": [
        0.981353223323822,
        0.9881964921951294
      ],
      "min": [
        0.0156637504696846,
        0.006833522580564022
      ],
      "type": "VEC2"
    },
    {
      "bufferView": 1,
      "byteOffset": 180648,
      "componentType": 5125,
      "count": 3036,
      "type": "SCALAR"
    },
    {
      "bufferView": 3,
      "byteOffset": 266544,
      "componentType": 5126,
      "count": 6188,
      "max": [
        2.0712990760803223,
        2.750659704208374,
        0.17945142090320587
      ],
      "min": [
        1.74188232421875,
        2.4388251304626465,
        -4.835115432739258
      ],
      "type": "VEC3"
    },
    {
      "bufferView": 3,
      "byteOffset": 340800,
      "componentType": 5126,
      "count": 6188,
      "max": [
        0.9990671277046204,
        1.0,
        0.9994768500328064
      ],
      "min": [
        -0.9990672469139099,
        -1.0,
        -0.9799046516418457
      ],
      "type": "VEC3"
    },
    {
      "bufferView": 2,
      "byteOffset": 88848,
      "componentType": 5126,
      "count": 6188,
      "max": [
        0.9901827573776245,
        0.9901593923568726
      ],
      "min": [
        0.013325635343790054,
        0.014137051068246365
      ],
      "type": "VEC2"
    },
    {
      "bufferView": 2,
      "byteOffset": 138352,
      "componentType": 5126,
      "count": 6188,
      "max": [
        10.734375,
        250.875
      ],
      "min": [
        -520.0,
        -12.4296875
      ],
      "type": "VEC2"
    },
    {
      "bufferView": 1,
      "byteOffset": 192792,
      "componentType": 5125,
      "count": 28428,
      "type": "SCALAR"
    },
    {
      "bufferView": 5,
      "componentType": 5126,
      "count": 144,
      "max": [
        1.0000001192092896,
        0.9939963221549988,
        1.0000001192092896,
        0.0,
        1.0,
        1.0000001192092896,
        1.0000001192092896,
        0.0,
        0.9816976189613342,
        1.0,
        1.0000001192092896,
        0.0,
        2.7496020793914795,
        1.9065643548965454,
        2.3415582180023193,
        1.0
      ],
      "min": [
        -1.0000001192092896,
        -1.0000001192092896,
        -0.9816976189613342,
        0.0,
        -1.0,
        -0.6428976058959961,
        -0.9653592109680176,
        0.0,
        -1.0000001192092896,
        -0.9982378482818604,
        -0.9993141889572144,
        0.0,
        -4.472099781036377,
        -2.727835178375244,
        -2.5859625339508057,
        1.0
      ],
      "type": "MAT4"
    },
    {
      "bufferView": 0,
      "componentType": 5123,
      "count": 2055,
      "type": "VEC4"
    },
    {
      "bufferView": 4,
      "componentType": 5126,
      "count": 2055,
      "max": [
        1.0,
        0.5,
        0.2582249939441681,
        0.12223570793867111
      ],
      "min": [
        0.43243247270584106,
        0.0,
        0.0,
        0.0
      ],
      "type": "VEC4"
    },
    {
      "bufferView": 0,
      "byteOffset": 16440,
      "componentType": 5123,
      "count": 1804,
      "type": "VEC4"
    },
    {
      "bufferView": 4,
      "byteOffset": 32880,
      "componentType": 5126,
      "count": 1804,
      "max": [
        1.0,
        0.5,
        0.32499998807907104,
        0.028339341282844543
      ],
      "min": [
        0.3499999940395355,
        0.0,
        0.0,
        0.0
      ],
      "type": "VEC4"
    },
    {
      "bufferView": 0,
      "byteOffset": 30872,
      "componentType": 5123,
      "count": 1688,
      "type": "VEC4"
    },
    {
      "bufferView": 4,
      "byteOffset": 61744,
      "componentType": 5126,
      "count": 1688,
      "max": [
        1.0,
        0.49944016337394714,
        0.33224600553512573,
        0.08646807074546814
      ],
      "min": [
        0.33529868721961975,
        0.0,
        0.0,
        0.0
      ],
      "type": "VEC4"
    },
    {
      "bufferView": 0,
      "byteOffset": 44376,
      "componentType": 5123,
      "count": 3968,
      "type": "VEC4"
    },
    {
      "bufferView": 4,
      "byteOffset": 88752,
      "componentType": 5126,
      "count": 3968,
      "max": [
        1.0,
        0.5,
        0.30986273288726807,
        0.09387395530939102
      ],
      "min": [
        0.3499999940395355,
        0.0,
        0.0,
        0.0
      ],
      "type": "VEC4"
    },
    {
      "bufferView": 0,
      "byteOffset": 76120,
      "componentType": 5123,
      "count": 6188,
      "type": "VEC4"
    },
    {
      "bufferView": 4,
      "byteOffset": 152240,
      "componentType": 5126,
      "count": 6188,
      "max": [
        1.0,
        0.5,
        0.0,
        0.0
      ],
      "min": [
        0.5,
        0.0,
        0.0,
        0.0
      ],
      "type": "VEC4"
    }
  ],
  "asset": {
    "extras": {
      "author": "20062020year (https://sketchfab.com/20062020year)",
      "license": "CC-BY-4.0 (http://creativecommons.org/licenses/by/4.0/)",
      "source": "https://sketchfab.com/3d-models/jujutsu-kaisen-toji-fushiguro-99fac78054474d9b8738abf2fe5a1b09",
      "title": "Jujutsu_Kaisen_Toji_Fushiguro"
    },
    "generator": "Sketchfab-16.71.0",
    "version": "2.0"
  },
  "bufferViews": [
    {
      "buffer": 0,
      "byteLength": 125624,
      "byteStride": 8,
      "name": "shortBufferViews",
      "target": 34962
    },
    {
      "buffer": 0,
      "byteLength": 306504,
      "byteOffset": 125624,
      "name": "floatBufferViews",
      "target": 34963
    },
    {
      "buffer": 0,
      "byteLength": 187856,
      "byteOffset": 432128,
      "byteStride": 8,
      "name": "floatBufferViews",
      "target": 34962
    },
    {
      "buffer": 0,
      "byteLength": 415056,
      "byteOffset": 619984,
      "byteStride": 12,
      "name": "floatBufferViews",
      "target": 34962
    },
    {
      "buffer": 0,
      "byteLength": 251248,
      "byteOffset": 1035040,
      "byteStride": 16,
      "name": "floatBufferViews",
      "target": 34962
    },
    {
      "buffer": 0,
      "byteLength": 9216,
      "byteOffset": 1286288,
      "name": "floatBufferViews"
    }
  ],
  "buffers": [
    {
      "byteLength": 1295504,
      "uri": "scene.bin"
    }
  ],
  "extensionsUsed": [
    "KHR_materials_specular"
  ],
  "images": [
    {
      "uri": "textures/role_fuheishener_body_mat_01_baseColor.png"
    },
    {
      "uri": "textures/role_fuheishener_body_mat_01_metallicRoughness.png"
    },
    {
      "uri": "textures/role_fuheishener_skin_mat_01_baseColor.jpeg"
    },
    {
      "uri": "textures/role_fuheishener_wuqi1_mat_01_baseColor.png"
    },
    {
      "uri": "textures/role_fuheishener_wuqi1_mat_01_metallicRoughness.png"
    },
    {
      "uri": "textures/role_fuheishener_zhouling_mat_01_baseColor.png"
    },
    {
      "uri": "textures/role_fuheishener_zhouling_mat_01_metallicRoughness.png"
    },
    {
      "uri": "textures/role_fuheishener_zhouling_mat_01_specularf0.png"
    }
  ],
  "materials": [
    {
      "doubleSided": true,
      "name": "role_fuheishener_body_mat_01",
      "pbrMetallicRoughness": {
        "baseColorTexture": {
          "index": 0
        },
        "metallicRoughnessTexture": {
          "index": 1
        },
        "roughnessFactor": 0.9577051494623774
      }
    },
    {
      "doubleSided": true,
      "name": "role_fuheishener_face_mat_01",
      "pbrMetallicRoughness": {
        "baseColorTexture": {
          "index": 0
        },
        "metallicRoughnessTexture": {
          "index": 1
        },
        "roughnessFactor": 0.9577051494623774
      }
    },
    {
      "doubleSided": true,
      "name": "role_fuheishener_hair_mat_01",
      "pbrMetallicRoughness": {
        "baseColorTexture": {
          "index": 0
        },
        "metallicRoughnessTexture": {
          "index": 1
        },
        "roughnessFactor": 0.9577051494623774
      }
    },
    {
      "doubleSided": true,
      "name": "role_fuheishener_skin_mat_01",
      "pbrMetallicRoughness": {
        "baseColorTexture": {
          "index": 2
        },
        "metallicRoughnessTexture": {
          "index": 1
        },
        "roughnessFactor": 0.9577051494623774
      }
    },
    {
      "doubleSided": true,
      "name": "role_fuheishener_wuqi1_mat_01",
      "pbrMetallicRoughness": {
        "baseColorTexture": {
          "index": 3
        },
        "metallicRoughnessTexture": {
          "index": 4
        },
        "roughnessFactor": 0.9577051494623774
      }
    },
    {
      "doubleSided": true,
      "name": "role_fuheishener_wuqi2_mat_01",
      "pbrMetallicRoughness": {
        "baseColorTexture": {
          "index": 3
        },
        "metallicRoughnessTexture": {
          "index": 4
        },
        "roughnessFactor": 0.9577051494623774
      }
    },
    {
      "doubleSided": true,
      "extensions": {
        "KHR_materials_specular": {
          "specularColorFactor": [
            1.0,
            1.0,
            1.0
          ],
          "specularFactor": 1.0,
          "specularTexture": {
            "index": 7
          }
        }
      },
      "name": "role_fuheishener_zhouling_mat_01",
      "pbrMetallicRoughness": {
        "baseColorTexture": {
          "index": 5
        },
        "metallicRoughnessTexture": {
          "index": 6
        },
        "roughnessFactor": 0.9577051494623774
      }
    }
  ],
  "meshes": [
    {
      "name": "role_fuheishener_body_role_fuheishener_body_mat_01_0",
      "primitives": [
        {
          "attributes": {
            "JOINTS_0": 30,
            "NORMAL": 1,
            "POSITION": 0,
            "TEXCOORD_0": 2,
            "WEIGHTS_0": 31
          },
          "indices": 3,
          "material": 0,
          "mode": 4
        }
      ]
    },
    {
      "name": "role_fuheishener_face_role_fuheishener_face_mat_01_0",
      "primitives": [
        {
          "attributes": {
            "JOINTS_0": 32,
            "NORMAL": 5,
            "POSITION": 4,
            "TEXCOORD_0": 6,
            "WEIGHTS_0": 33
          },
          "indices": 7,
          "material": 1,
          "mode": 4
        }
      ]
    },
    {
      "name": "role_fuheishener_hair_role_fuheishener_hair_mat_01_0",
      "primitives": [
        {
          "attributes": {
            "JOINTS_0": 34,
            "NORMAL": 9,
            "POSITION": 8,
            "TEXCOORD_0": 10,
            "WEIGHTS_0": 35
          },
          "indices": 11,
          "material": 2,
          "mode": 4
        }
      ]
    },
    {
      "name": "role_fuheishener_skin_role_fuheishener_skin_mat_01_0",
      "primitives": [
        {
          "attributes": {
            "JOINTS_0": 36,
            "NORMAL": 13,
            "POSITION": 12,
            "TEXCOORD_0": 14,
            "WEIGHTS_0": 37
          },
          "indices": 15,
          "material": 3,
          "mode": 4
        }
      ]
    },
    {
      "name": "role_fuheishener_wuqi1_role_fuheishener_wuqi1_mat_01_0",
      "primitives": [
        {
          "attributes": {
            "NORMAL": 17,
            "POSITION": 16,
            "TEXCOORD_0": 18
          },
          "indices": 19,
          "material": 4,
          "mode": 4
        }
      ]
    },
    {
      "name": "role_fuheishener_wuqi2_role_fuheishener_wuqi2_mat_01_0",
      "primitives": [
        {
          "attributes": {
            "NORMAL": 21,
            "POSITION": 20,
            "TEXCOORD_0": 22
          },
          "indices": 23,
          "material": 5,
          "mode": 4
        }
      ]
    },
    {
      "name": "role_fuheishener_zhouling_role_fuheishener_zhouling_mat_01_0",
      "primitives": [
        {
          "attributes": {
            "JOINTS_0": 38,
            "NORMAL": 25,
            "POSITION": 24,
            "TEXCOORD_0": 26,
            "TEXCOORD_1": 27,
            "WEIGHTS_0": 39
          },
          "indices": 28,
          "material": 6,
          "mode": 4
        }
      ]
    }
  ],
  "nodes": [
    {
      "children": [
        1
      ],
      "matrix": [
        1.0,
        0.0,
        0.0,
        0.0,
        0.0,
        2.220446049250313e-16,
        -1.0,
        0.0,
        0.0,
        1.0,
        2.220446049250313e-16,
        0.0,
        0.0,
        0.0,
        0.0,
        1.0
      ],
      "name": "Sketchfab_model"
    },
    {
      "children": [
        2
      ],
      "matrix": [
        0.10000000149011612,
        0.0,
        0.0,
        0.0,
        0.0,
        0.0,
        0.10000000149011612,
        0.0,
        0.0,
        -0.10000000149011612,
        0.0,
        0.0,
        0.0,
        0.0,
        0.0,
        1.0
      ],
      "name": "role_fuheishener_skin.fbx"
    },
    {
      "children": [
        3
      ],
      "name": "RootNode"
    },
    {
      "children": [
        4
      ],
      "name": "role_fuheishener_ui"
    },
    {
      "children": [
        5
      ],
      "name": "role_fuheishener_chuchang_tl"
    },
    {
      "children": [
        6
      ],
      "name": "model"
    },
    {
      "children": [
        7,
        9,
        11,
        13,
        15,
        21,
        8,
        10,
        12,
        14,
        16,
        18,
        20
      ],
      "name": "Object_6"
    },
    {
      "children": [
        22
      ],
      "name": "_rootJoint"
    },
    {
      "matrix": [
        1.0,
        -2.7755575615628914e-17,
        2.7755575615628914e-17,
        0.0,
        2.7755575615628914e-17,
        6.123233995736766e-17,
        -1.0,
        0.0,
        2.775557561562891e-17,
        1.0,
        6.123233995736766e-17,
        0.0,
        -5.551115123125783e-17,
        -1.1102230246251565e-16,
        -1.3877787807814457e-17,
        1.0
      ],
      "name": "Object_8"
    },
    {
      "mesh": 0,
      "name": "Object_9",
      "skin": 0
    },
    {
      "matrix": [
        1.0,
        -2.362340852803481e-23,
        6.617444900424222e-24,
        0.0,
        6.617444900424222e-24,
        6.123233995736765e-17,
        -0.9999999999999999,
        0.0,
        2.362340852803481e-23,
        1.0,
        6.123233995736766e-17,
        0.0,
        5.293955920339377e-23,
        -4.440892098500626e-16,
        2.7755575615628914e-17,
        1.0
      ],
      "name": "Object_10"
    },
    {
      "mesh": 1,
      "name": "Object_11",
      "skin": 0
    },
    {
      "matrix": [
        1.0,
        2.117582368135751e-22,
        0.0,
        0.0,
        -1.29664523453416e-38,
        6.123233995736767e-17,
        -1.0000000000000002,
        0.0,
        -2.117582368135751e-22,
        1.0,
        6.123233995736766e-17,
        0.0,
        8.470329472543003e-22,
        0.0,
        8.673617379884035e-19,
        1.0
      ],
      "name": "Object_12"
    },
    {
      "mesh": 2,
      "name": "Object_13",
      "skin": 0
    },
    {
      "matrix": [
        1.0000000000000002,
        0.0,
        2.7755575615628914e-17,
        0.0,
        2.7755575615628914e-17,
        6.123233995736767e-17,
        -1.0000000000000002,
        0.0,
        -1.6995388418086138e-33,
        1.0000000000000002,
        6.123233995736767e-17,
        0.0,
        0.0,
        -2.220446049250313e-16,
        -4.163336342344337e-17,
        1.0
      ],
      "name": "Object_14"
    },
    {
      "mesh": 3,
      "name": "Object_15",
      "skin": 0
    },
    {
      "children": [
        17
      ],
      "matrix": [
        1.0,
        8.72879798109024e-24,
        8.470329472543003e-22,
        0.0,
        8.470329472543003e-22,
        6.123233995736766e-17,
        -1.0,
        0.0,
        -8.728797981090293e-24,
        1.0000000000000002,
        6.123233995736767e-17,
        0.0,
        0.0,
        0.0,
        -2.168404344971009e-19,
        1.0
      ],
      "name": "Object_16"
    },
    {
      "mesh": 4,
      "name": "role_fuheishener_wuqi1_role_fuheishener_wuqi1_mat_01_0"
    },
    {
      "children": [
        19
      ],
      "matrix": [
        1.0,
        -1.2877082093323282e-23,
        -2.6469779601696886e-23,
        0.0,
        -2.6469779601696886e-23,
        6.123233995736766e-17,
        -1.0,
        0.0,
        1.2877082093323284e-23,
        1.0,
        6.123233995736766e-17,
        0.0,
        0.0,
        0.0,
        6.617444900424221e-23,
        1.0
      ],
      "name": "Object_18"
    },
    {
      "mesh": 5,
      "name": "role_fuheishener_wuqi2_role_fuheishener_wuqi2_mat_01_0"
    },
    {
      "matrix": [
        0.9999999999999999,
        0.0,
        -6.617444900424222e-24,
        0.0,
        -6.617444900424223e-24,
        6.123233995736766e-17,
        -1.0,
        0.0,
        4.05201635791925e-40,
        1.0,
        6.123233995736766e-17,
        0.0,
        4.440892098500626e-16,
        0.0,
        6.190851567500211e-08,
        1.0
      ],
      "name": "Object_20"
    },
    {
      "mesh": 6,
      "name": "Object_21",
      "skin": 0
    },
    {
      "children": [
        23,
        144,
        161,
        162,
        163,
        164,
        165,
        166,
        167,
        168,
        169,
        170,
        171
      ],
      "name": "role_fuheishener_skin_00"
    },
    {
      "children": [
        24,
        143
      ],
      "name": "Bip001_01",
      "rotation": [
        0.2394304722547531,
        0.7103243470191956,
        0.6455179452896118,
        -0.1463526040315628
      ],
      "translation": [
        0.0,
        1.6018939018249512,
        0.0
      ]
    },
    {
      "children": [
        25,
        135,
        139
      ],
      "name": "Bip001 Pelvis_02",
      "rotation": [
        -0.5000001192092896,
        -0.5,
        -0.4999992549419403,
        0.5000008344650269
      ]
    },
    {
      "children": [
        26,
        32,
        37,
        133,
        134
      ],
      "name": "Bip001 Spine_03",
      "rotation": [
        -2.2293061192613095e-06,
        -7.031052859929332e-07,
        0.00039834529161453247,
        0.9999999403953552
      ],
      "translation": [
        0.15232907235622406,
        -0.00013507746916729957,
        3.252029046052485e-07
      ]
    },
    {
      "children": [
        27,
        31
      ],
      "name": "Bip001 L Thigh_04",
      "rotation": [
        -0.002004103735089302,
        0.9579262137413025,
        0.2635262906551361,
        -0.11369907110929489
      ],
      "translation": [
        -0.15232883393764496,
        0.00025602339883334935,
        0.15559227764606476
      ]
    },
    {
      "children": [
        28,
        30
      ],
      "name": "Bip001 L Calf_05",
      "rotation": [
        1.1226132023978153e-08,
        -1.706385077682171e-08,
        -0.17041383683681488,
        0.9853726029396057
      ],
      "translation": [
        0.7405108213424683,
        -5.91278030981357e-08,
        -5.551115123125783e-17
      ]
    },
    {
      "children": [
        29
      ],
      "name": "Bip001 L Foot_06",
      "rotation": [
        -0.017063597217202187,
        -0.0934407114982605,
        0.06056085601449013,
        0.9936347603797913
      ],
      "translation": [
        0.7343618869781494,
        -2.956390154906785e-08,
        -5.91278030981357e-08
      ]
    },
    {
      "name": "Bip001 L Toe0_07",
      "rotation": [
        2.079531569165738e-08,
        2.0795329902512094e-08,
        0.70710688829422,
        0.7071067094802856
      ],
      "translation": [
        0.15345001220703125,
        0.2447071075439453,
        0.00010563182149780914
      ]
    },
    {
      "name": "Bip001 L Calf_05_0"
    },
    {
      "name": "Point003_08",
      "rotation": [
        -0.0012148517416790128,
        0.0010950727155432105,
        0.9999986290931702,
        0.0003372875798959285
      ],
      "scale": [
        -1.0,
        -1.0,
        -1.0
      ],
      "translation": [
        0.000745128549169749,
        -0.013900828547775745,
        -0.13749469816684723
      ]
    },
    {
      "children": [
        33,
        36
      ],
      "name": "Bip001 R Thigh_09",
      "rotation": [
        -0.07707206159830093,
        0.947394073009491,
        -0.2522217035293579,
        0.18135273456573486
      ],
      "translation": [
        -0.15232883393764496,
        0.0002569398784544319,
        -0.15559236705303192
      ]
    },
    {
      "children": [
        34
      ],
      "name": "Bip001 R Calf_010",
      "rotation": [
        -5.58522894600344e-10,
        3.00290672328174e-08,
        -0.10556068271398544,
        0.9944129586219788
      ],
      "translation": [
        0.7405107021331787,
        1.4781950774533925e-08,
        -5.91278030981357e-08
      ]
    },
    {
      "children": [
        35
      ],
      "name": "Bip001 R Foot_011",
      "rotation": [
        -0.004526520147919655,
        0.13532140851020813,
        0.07845298200845718,
        0.9876804947853088
      ],
      "translation": [
        0.7343621850013733,
        3.141164484077308e-08,
        5.91278030981357e-08
      ]
    },
    {
      "name": "Bip001 R Toe0_012",
      "rotation": [
        0.0028695205692201853,
        -0.0028697685338556767,
        0.707101047039032,
        0.7071008682250977
      ],
      "translation": [
        0.1534499228000641,
        0.24471163749694824,
        -0.00010648917668731883
      ]
    },
    {
      "name": "Point002_013",
      "rotation": [
        1.6391277313232422e-07,
        4.470347292340193e-08,
        -4.284084198502569e-08,
        1.0
      ],
      "translation": [
        3.370284684933722e-05,
        -0.013252521865069866,
        0.13752086460590363
      ]
    },
    {
      "children": [
        38
      ],
      "name": "Bip001 Spine1_014",
      "rotation": [
        -0.05442996323108673,
        -0.011416316032409668,
        0.03189297020435333,
        0.9979429244995117
      ],
      "translation": [
        0.16982156038284302,
        -0.0001626014563953504,
        1.7930506146512926e-05
      ]
    },
    {
      "children": [
        39,
        132
      ],
      "name": "Bip001 Spine2_015",
      "rotation": [
        -0.19269220530986786,
        -0.049032650887966156,
        0.09008000791072845,
        0.9758847951889038
      ],
      "translation": [
        0.20590996742248535,
        -0.00018991850083693862,
        8.035838254727423e-05
      ]
    },
    {
      "children": [
        40,
        82,
        107
      ],
      "name": "Bip001 Neck_016",
      "rotation": [
        0.1964157074689865,
        -0.01346150878816843,
        0.0036350537557154894,
        0.9804216623306274
      ],
      "translation": [
        0.26211804151535034,
        -0.09902343153953552,
        -4.085731052327901e-05
      ]
    },
    {
      "children": [
        41,
        42,
        43,
        47,
        50,
        54,
        55,
        56,
        57,
        58,
        59,
        60,
        61,
        62,
        67,
        68,
        69,
        70,
        71,
        72,
        73,
        74,
        75,
        76,
        77,
        78,
        79,
        80,
        81
      ],
      "name": "Bip001 Head_017",
      "rotation": [
        0.01326072495430708,
        -0.07995898276567459,
        -0.02629711665213108,
        0.9963629841804504
      ],
      "translation": [
        0.13282138109207153,
        2.956390154906785e-08,
        0.0
      ]
    },
    {
      "name": "eye_01_018",
      "rotation": [
        -0.47227561473846436,
        -0.42390668392181396,
        -0.565953254699707,
        0.5262658596038818
      ],
      "translation": [
        0.13004308938980103,
        0.15135012567043304,
        -0.03970642015337944
      ]
    },
    {
      "name": "eye_002_019",
      "rotation": [
        0.597710371017456,
        -0.5977088809013367,
        0.3778136074542999,
        0.37781381607055664
      ],
      "scale": [
        -1.0,
        -1.0,
        -1.0
      ],
      "translation": [
        0.1301719844341278,
        0.1484341323375702,
        0.05261342599987984
      ]
    },
    {
      "children": [
        44
      ],
      "name": "hair_00_020",
      "rotation": [
        -0.04771943762898445,
        0.9789268374443054,
        0.16507209837436676,
        0.11034730076789856
      ],
      "scale": [
        1.0000009536743164,
        1.0,
        1.0000009536743164
      ],
      "translation": [
        0.2820535898208618,
        0.09924814850091934,
        -0.0945228561758995
      ]
    },
    {
      "children": [
        45
      ],
      "name": "hair_03_021",
      "rotation": [
        -0.05025452375411987,
        0.15532062947750092,
        0.014422900043427944,
        0.9864795804023743
      ],
      "scale": [
        1.0,
        1.0000009536743164,
        0.9999989867210388
      ],
      "translation": [
        0.08154740929603577,
        2.7790067633759463e-06,
        -3.4294125725864433e-06
      ]
    },
    {
      "children": [
        46
      ],
      "name": "hair_04_022",
      "rotation": [
        0.021345725283026695,
        0.07995649427175522,
        0.08368764072656631,
        0.9930498003959656
      ],
      "translation": [
        0.07490570098161697,
        -5.91278030981357e-08,
        -8.869170642356039e-08
      ]
    },
    {
      "name": "hair_05_023",
      "rotation": [
        -2.468007664901961e-08,
        1.687020697969813e-16,
        -7.450580596923828e-09,
        1.0
      ],
      "translation": [
        0.05919922888278961,
        -3.843307183615252e-07,
        -7.686614367230504e-07
      ]
    },
    {
      "children": [
        48
      ],
      "name": "hair_01_024",
      "rotation": [
        0.040342189371585846,
        0.6968268752098083,
        0.7059552669525146,
        0.12013307958841324
      ],
      "translation": [
        0.2713507413864136,
        0.16536304354667664,
        0.00772034702822566
      ]
    },
    {
      "children": [
        49
      ],
      "name": "hair_06_025",
      "rotation": [
        0.0015460564754903316,
        0.037575334310531616,
        -0.04109436646103859,
        0.9984472990036011
      ],
      "scale": [
        0.9999989867210388,
        0.9999989867210388,
        1.0000009536743164
      ],
      "translation": [
        0.08557306975126266,
        -1.7738341284712078e-07,
        -4.1389461102880887e-07
      ]
    },
    {
      "name": "hair_07_026",
      "rotation": [
        5.401659564086003e-08,
        5.6204909331541725e-15,
        1.0430810704065152e-07,
        1.0
      ],
      "translation": [
        0.0617142915725708,
        2.010345269809477e-06,
        -1.7738341284712078e-07
      ]
    },
    {
      "children": [
        51
      ],
      "name": "hair_02_027",
      "rotation": [
        0.11360315978527069,
        0.1355273574590683,
        0.9842255115509033,
        -0.005180479027330875
      ],
      "scale": [
        1.0,
        1.0000009536743164,
        1.0
      ],
      "translation": [
        0.27448591589927673,
        0.07277652621269226,
        0.10541742295026779
      ]
    },
    {
      "children": [
        52
      ],
      "name": "hair_08_028",
      "rotation": [
        -0.008846325799822807,
        0.22900179028511047,
        -0.009427632205188274,
        0.9733401536941528
      ],
      "translation": [
        0.08139604330062866,
        -5.912780238759296e-07,
        -1.478195059689824e-07
      ]
    },
    {
      "children": [
        53
      ],
      "name": "hair_09_029",
      "rotation": [
        -0.008412759751081467,
        -0.054351262748241425,
        -0.003907508682459593,
        0.998478889465332
      ],
      "scale": [
        1.0,
        0.9999989867210388,
        1.0
      ],
      "translation": [
        0.0744454488158226,
        4.878043569078727e-07,
        -1.5373228734461009e-06
      ]
    },
    {
      "name": "hair_10_030",
      "rotation": [
        8.940696005765858e-08,
        1.1920928244535389e-07,
        -8.568169107547874e-08,
        1.0
      ],
      "translation": [
        0.05980564281344414,
        6.208419449649227e-07,
        1.596450715624087e-06
      ]
    },
    {
      "name": "meimao_01_031",
      "rotation": [
        0.5785424709320068,
        0.5785432457923889,
        0.4065561890602112,
        -0.40655675530433655
      ],
      "translation": [
        0.1384233832359314,
        0.18092431128025055,
        -0.017049619928002357
      ]
    },
    {
      "name": "meimao_02_032",
      "rotation": [
        0.6149274706840515,
        0.6149283051490784,
        0.34908953309059143,
        -0.3490901291370392
      ],
      "translation": [
        0.14819130301475525,
        0.16934238374233246,
        -0.043399542570114136
      ]
    },
    {
      "name": "meimao_03_033",
      "rotation": [
        0.6332935690879822,
        0.633294403553009,
        0.3145451247692108,
        -0.3145456612110138
      ],
      "translation": [
        0.1575850546360016,
        0.15105925500392914,
        -0.07129964232444763
      ]
    },
    {
      "name": "meimao_04_034",
      "rotation": [
        0.6111729145050049,
        0.6111739873886108,
        0.3556216359138489,
        -0.35562238097190857
      ],
      "translation": [
        0.16638918220996857,
        0.12070002406835556,
        -0.09144963324069977
      ]
    },
    {
      "name": "meimao_005_035",
      "rotation": [
        0.5785438418388367,
        -0.5785430669784546,
        0.4065559506416321,
        0.40655529499053955
      ],
      "scale": [
        -1.0,
        -1.0,
        -1.0
      ],
      "translation": [
        0.13856931030750275,
        0.18092426657676697,
        0.017050566151738167
      ]
    },
    {
      "name": "meimao_006_036",
      "rotation": [
        0.6149288415908813,
        -0.6149280071258545,
        0.34908923506736755,
        0.3490886688232422
      ],
      "scale": [
        -1.0,
        -1.0,
        -1.0
      ],
      "translation": [
        0.1483369916677475,
        0.1693422943353653,
        0.04340054839849472
      ]
    },
    {
      "name": "meimao_007_037",
      "rotation": [
        0.6332949995994568,
        -0.6332938075065613,
        0.31454479694366455,
        0.31454408168792725
      ],
      "scale": [
        -1.0,
        -1.0,
        -1.0
      ],
      "translation": [
        0.1575852930545807,
        0.15105901658535004,
        0.07130032777786255
      ]
    },
    {
      "name": "meimao_008_038",
      "rotation": [
        0.6111744046211243,
        -0.6111735105514526,
        0.35562145709991455,
        0.3556208312511444
      ],
      "scale": [
        -1.0,
        -1.0,
        -1.0
      ],
      "translation": [
        0.16638894379138947,
        0.12069978564977646,
        0.09145040065050125
      ]
    },
    {
      "children": [
        63,
        64,
        65,
        66
      ],
      "name": "xiaba_039",
      "rotation": [
        0.3618815541267395,
        0.6074885129928589,
        -0.6074874401092529,
        -0.36188188195228577
      ],
      "scale": [
        1.0000009536743164,
        1.0,
        1.0
      ],
      "translation": [
        0.035534389317035675,
        0.05318823829293251,
        8.277892220576177e-07
      ]
    },
    {
      "name": "yachi_02_040",
      "rotation": [
        -0.607487678527832,
        0.6074877977371216,
        -0.3618822395801544,
        0.36188217997550964
      ],
      "scale": [
        1.0000009536743164,
        0.9999997615814209,
        0.9999992847442627
      ],
      "translation": [
        0.08345995843410492,
        5.551115123125783e-17,
        -0.039913397282361984
      ]
    },
    {
      "name": "zuichun_02_041",
      "rotation": [
        -0.607487678527832,
        0.6074877977371216,
        -0.3618822395801544,
        0.36188217997550964
      ],
      "scale": [
        1.0000009536743164,
        0.9999997615814209,
        0.9999992847442627
      ],
      "translation": [
        0.10685423016548157,
        -2.956390154906785e-08,
        -0.05094144120812416
      ]
    },
    {
      "name": "zuichun_04_042",
      "rotation": [
        -0.679584801197052,
        0.49538323283195496,
        -0.19535687565803528,
        0.504574716091156
      ],
      "scale": [
        1.0000008344650269,
        0.9999997615814209,
        0.999999463558197
      ],
      "translation": [
        0.10157506167888641,
        0.024799974635243416,
        -0.04803164303302765
      ]
    },
    {
      "name": "zuichun_06_043",
      "rotation": [
        -0.19535687565803528,
        0.5045748949050903,
        0.6795848608016968,
        -0.4953831732273102
      ],
      "scale": [
        -1.0000008344650269,
        -0.9999997615814209,
        -0.999999463558197
      ],
      "translation": [
        0.10192687064409256,
        -0.024800004437565804,
        -0.047381944954395294
      ]
    },
    {
      "name": "yachi_01_044",
      "rotation": [
        -0.5000000596046448,
        -0.4999999403953552,
        -0.49999940395355225,
        0.5000005960464478
      ],
      "translation": [
        0.041717030107975006,
        0.1490497589111328,
        4.730224247850856e-07
      ]
    },
    {
      "name": "yanpi_01_045",
      "rotation": [
        -0.5000000596046448,
        -0.4999999403953552,
        -0.49999940395355225,
        0.5000005960464478
      ],
      "translation": [
        0.1341172307729721,
        0.16005255281925201,
        -0.03874955326318741
      ]
    },
    {
      "name": "yanpi_02_046",
      "rotation": [
        0.6129236221313477,
        0.6129247546195984,
        0.35259559750556946,
        -0.35259637236595154
      ],
      "translation": [
        0.138363316655159,
        0.14733117818832397,
        -0.06819969415664673
      ]
    },
    {
      "name": "yanpi_03_047",
      "rotation": [
        -0.5000000596046448,
        -0.4999999403953552,
        -0.49999940395355225,
        0.5000005960464478
      ],
      "translation": [
        0.12204498797655106,
        0.15632013976573944,
        -0.03564960137009621
      ]
    },
    {
      "name": "yanpi_04_048",
      "rotation": [
        0.610634982585907,
        0.6106357574462891,
        0.3565449118614197,
        -0.35654544830322266
      ],
      "translation": [
        0.12501154839992523,
        0.14272044599056244,
        -0.06577728688716888
      ]
    },
    {
      "name": "yanpi_05_049",
      "rotation": [
        0.5000007152557373,
        -0.4999993145465851,
        0.5000000596046448,
        0.4999999701976776
      ],
      "scale": [
        -1.0,
        -1.0,
        -1.0
      ],
      "translation": [
        0.1341172307729721,
        0.16005244851112366,
        0.03875046968460083
      ]
    },
    {
      "name": "yanpi_06_050",
      "rotation": [
        0.5000007152557373,
        -0.4999993145465851,
        0.5000000596046448,
        0.4999999701976776
      ],
      "scale": [
        -1.0,
        -1.0,
        -1.0
      ],
      "translation": [
        0.12204498797655106,
        0.15632005035877228,
        0.03565051779150963
      ]
    },
    {
      "name": "yanpi_07_051",
      "rotation": [
        0.6106364130973816,
        -0.6106354594230652,
        0.3565446734428406,
        0.3565439283847809
      ],
      "scale": [
        -1.0,
        -1.0,
        -1.0
      ],
      "translation": [
        0.12501154839992523,
        0.1427202671766281,
        0.06510042399168015
      ]
    },
    {
      "name": "yanpi_08_052",
      "rotation": [
        0.612925112247467,
        -0.6129242777824402,
        0.35259532928466797,
        0.35259485244750977
      ],
      "scale": [
        -1.0,
        -1.0,
        -1.0
      ],
      "translation": [
        0.1383630782365799,
        0.14733099937438965,
        0.06820040196180344
      ]
    },
    {
      "name": "zuichun_01_053",
      "rotation": [
        -0.5000000596046448,
        -0.4999999403953552,
        -0.49999940395355225,
        0.5000005960464478
      ],
      "translation": [
        0.04172010347247124,
        0.17892061173915863,
        4.730224247850856e-07
      ]
    },
    {
      "name": "zuichun_03_054",
      "rotation": [
        0.6111677885055542,
        0.6111689209938049,
        0.35563039779663086,
        -0.35563117265701294
      ],
      "translation": [
        0.04337828606367111,
        0.1687803417444229,
        -0.026650171726942062
      ]
    },
    {
      "name": "zuichun_05_055",
      "rotation": [
        0.6111693382263184,
        -0.611168384552002,
        0.35563018918037415,
        0.355629563331604
      ],
      "scale": [
        -1.0,
        -1.0,
        -1.0
      ],
      "translation": [
        0.04041409119963646,
        0.1698320508003235,
        0.024800565093755722
      ]
    },
    {
      "name": "zuijiao_01_056",
      "rotation": [
        0.6371518969535828,
        0.6371527314186096,
        0.306654155254364,
        -0.306654691696167
      ],
      "translation": [
        0.04386242479085922,
        0.14743901789188385,
        -0.044879451394081116
      ]
    },
    {
      "name": "zuijiao_02_057",
      "rotation": [
        0.6371532082557678,
        -0.6371522545814514,
        0.30665385723114014,
        0.3066532611846924
      ],
      "scale": [
        -1.0,
        -1.0,
        -1.0
      ],
      "translation": [
        0.042208265513181686,
        0.14738287031650543,
        0.044950373470783234
      ]
    },
    {
      "name": "head_bar_058",
      "rotation": [
        0.0,
        0.0,
        6.938893903907228e-18,
        1.0
      ]
    },
    {
      "children": [
        83
      ],
      "name": "Bip001 L Clavicle_059",
      "rotation": [
        0.6688999533653259,
        -0.06924717128276825,
        0.7383535504341125,
        -0.05110558867454529
      ],
      "translation": [
        -0.04186011850833893,
        0.03495204076170921,
        0.15501227974891663
      ]
    },
    {
      "children": [
        84,
        101,
        103,
        106
      ],
      "name": "Bip001 L UpperArm_060",
      "rotation": [
        -0.0029557563830167055,
        0.4711480736732483,
        0.06564827263355255,
        0.8796027898788452
      ],
      "translation": [
        0.1493077576160431,
        2.956390154906785e-08,
        0.0
      ]
    },
    {
      "children": [
        85
      ],
      "name": "Bip001 L Forearm_061",
      "rotation": [
        -1.1520364218142731e-08,
        -7.398585921691847e-08,
        -0.2514117360115051,
        0.9678802490234375
      ],
      "translation": [
        0.4362664520740509,
        5.91278030981357e-08,
        1.182556061962714e-07
      ]
    },
    {
      "children": [
        86,
        89,
        92,
        95,
        98
      ],
      "name": "Bip001 L Hand_062",
      "rotation": [
        -0.7085163593292236,
        0.15079784393310547,
        0.10532892495393753,
        0.6813005208969116
      ],
      "translation": [
        0.3223537802696228,
        2.956390154906785e-08,
        -1.182556061962714e-07
      ]
    },
    {
      "children": [
        87
      ],
      "name": "Bip001 L Finger0_063",
      "rotation": [
        0.7432029247283936,
        0.36287495493888855,
        0.13494740426540375,
        0.5456742644309998
      ],
      "translation": [
        0.08020639419555664,
        0.05445682629942894,
        -0.05198226869106293
      ]
    },
    {
      "children": [
        88
      ],
      "name": "Bip001 L Finger01_064",
      "rotation": [
        0.0020545029547065496,
        -0.0007351114763878286,
        0.39240068197250366,
        0.9197918176651001
      ],
      "translation": [
        0.05905140936374664,
        5.91278030981357e-08,
        -5.91278030981357e-08
      ]
    },
    {
      "name": "Bip001 L Finger02_065",
      "rotation": [
        -0.0005285596125759184,
        0.0013049517292529345,
        0.42505982518196106,
        0.9051643013954163
      ],
      "translation": [
        0.05768059194087982,
        2.956390154906785e-08,
        2.956390154906785e-08
      ]
    },
    {
      "children": [
        90
      ],
      "name": "Bip001 L Finger1_066",
      "rotation": [
        0.07973206043243408,
        -0.02451731264591217,
        0.6441397666931152,
        0.7603457570075989
      ],
      "translation": [
        0.2210407704114914,
        -0.0064444574527442455,
        -0.048381827771663666
      ]
    },
    {
      "children": [
        91
      ],
      "name": "Bip001 L Finger11_067",
      "rotation": [
        0.0008411238668486476,
        -0.0009860108839347959,
        0.6169874668121338,
        0.786971926689148
      ],
      "translation": [
        0.06949586421251297,
        0.0,
        -5.91278030981357e-08
      ]
    },
    {
      "name": "Bip001 L Finger12_068",
      "rotation": [
        0.0006813095533289015,
        0.0009827655740082264,
        0.6031933426856995,
        0.7975942492485046
      ],
      "translation": [
        0.05538040027022362,
        -1.182556061962714e-07,
        2.956390154906785e-08
      ]
    },
    {
      "children": [
        93
      ],
      "name": "Bip001 L Finger2_069",
      "rotation": [
        0.026482481509447098,
        -0.01177525706589222,
        0.628821611404419,
        0.7770092487335205
      ],
      "translation": [
        0.22819748520851135,
        -0.004041503649204969,
        -0.0007283067097887397
      ]
    },
    {
      "children": [
        94
      ],
      "name": "Bip001 L Finger21_070",
      "rotation": [
        -0.0007240708218887448,
        0.0008245075587183237,
        0.6425086259841919,
        0.7662776708602905
      ],
      "translation": [
        0.07688033580780029,
        0.0,
        0.0
      ]
    },
    {
      "name": "Bip001 L Finger22_071",
      "rotation": [
        -0.0004352446994744241,
        -0.0006638227496296167,
        0.5674410462379456,
        0.8234137892723083
      ],
      "translation": [
        0.053395066410303116,
        1.182556061962714e-07,
        -5.551115123125783e-17
      ]
    },
    {
      "children": [
        96
      ],
      "name": "Bip001 L Finger3_072",
      "rotation": [
        -0.05168160796165466,
        -0.019044455140829086,
        0.6475558876991272,
        0.7600247859954834
      ],
      "translation": [
        0.22454729676246643,
        0.002294217934831977,
        0.046062540262937546
      ]
    },
    {
      "children": [
        97
      ],
      "name": "Bip001 L Finger31_073",
      "rotation": [
        -0.00040091777918860316,
        0.0004595541686285287,
        0.5999462604522705,
        0.800040066242218
      ],
      "translation": [
        0.06378447264432907,
        2.220446049250313e-16,
        0.0
      ]
    },
    {
      "name": "Bip001 L Finger32_074",
      "rotation": [
        -0.0001692399091552943,
        -0.0002443163830321282,
        0.6279152631759644,
        0.7782816886901855
      ],
      "translation": [
        0.05538045987486839,
        2.220446049250313e-16,
        -5.551115123125783e-17
      ]
    },
    {
      "children": [
        99
      ],
      "name": "Bip001 L Finger4_075",
      "rotation": [
        -0.09081339091062546,
        -0.04674159735441208,
        0.635358989238739,
        0.765432596206665
      ],
      "translation": [
        0.2026001214981079,
        0.017167935147881508,
        0.08747579902410507
      ]
    },
    {
      "children": [
        100
      ],
      "name": "Bip001 L Finger41_076",
      "rotation": [
        -0.0006610463606193662,
        0.0007787391077727079,
        0.6273287534713745,
        0.7787539958953857
      ],
      "translation": [
        0.052158173173666,
        -1.182556061962714e-07,
        2.956390154906785e-08
      ]
    },
    {
      "name": "Bip001 L Finger42_077",
      "rotation": [
        -0.00010796125570777804,
        -0.00015126785729080439,
        0.6012800931930542,
        0.799038290977478
      ],
      "translation": [
        0.04615037515759468,
        1.182556061962714e-07,
        -2.956390154906785e-08
      ]
    },
    {
      "children": [
        102
      ],
      "name": "Bip001 L ForeTwist_078",
      "rotation": [
        -0.007996159605681896,
        0.002076965756714344,
        -0.25140321254730225,
        0.9678472876548767
      ],
      "translation": [
        0.4362664520740509,
        5.91278030981357e-08,
        1.182556061962714e-07
      ]
    },
    {
      "name": "Bip001 L ForeTwist1_079",
      "rotation": [
        -0.008261449635028839,
        1.4900654932148427e-08,
        1.2310522046199424e-10,
        0.9999659657478333
      ],
      "translation": [
        0.16117683053016663,
        -5.551115123125783e-17,
        -2.220446049250313e-16
      ]
    },
    {
      "children": [
        104,
        105
      ],
      "name": "Circle002_080",
      "rotation": [
        9.238720508619735e-07,
        2.5331897290925554e-07,
        -7.227063179016113e-07,
        1.0
      ],
      "translation": [
        0.0001167182854260318,
        -4.079818609170616e-06,
        0.0001679229608271271
      ]
    },
    {
      "name": "bone_niuqu_01_081",
      "rotation": [
        2.458690460116486e-07,
        1.1920930376163597e-07,
        -2.235175742271167e-07,
        1.0
      ],
      "scale": [
        0.9999989867210388,
        1.0000009536743164,
        1.0
      ],
      "translation": [
        -5.203246473683976e-06,
        7.686614367230504e-07,
        3.4294125725864433e-06
      ]
    },
    {
      "name": "bone_niuqu_03_082",
      "rotation": [
        -6.817280677751114e-07,
        -1.639130289277091e-07,
        4.842873977395357e-07,
        1.0
      ],
      "scale": [
        1.0,
        1.0,
        0.9999989867210388
      ],
      "translation": [
        0.24421130120754242,
        4.789352260559099e-06,
        -0.0002004432462854311
      ]
    },
    {
      "name": "niuqu_shouzhou_L_083",
      "rotation": [
        1.5979777856500732e-07,
        -2.2691358481097268e-07,
        0.5757774114608765,
        0.8176066279411316
      ],
      "scale": [
        1.0000009536743164,
        1.0,
        1.0000009536743164
      ],
      "translation": [
        0.43626171350479126,
        2.660751079019974e-06,
        3.784179398280685e-06
      ]
    },
    {
      "children": [
        108
      ],
      "name": "Bip001 R Clavicle_084",
      "rotation": [
        -0.5877223014831543,
        0.015479502268135548,
        0.8089069128036499,
        -0.003564947983250022
      ],
      "translation": [
        -0.05049963667988777,
        -0.08460165560245514,
        -0.1314149647951126
      ]
    },
    {
      "children": [
        109,
        126,
        128,
        131
      ],
      "name": "Bip001 R UpperArm_085",
      "rotation": [
        0.5488700270652771,
        -0.2034103274345398,
        0.0538717620074749,
        0.8089893460273743
      ],
      "translation": [
        0.14930778741836548,
        0.0,
        0.0
      ]
    },
    {
      "children": [
        110
      ],
      "name": "Bip001 R Forearm_086",
      "rotation": [
        -2.9049266103697846e-08,
        -9.991491189964563e-09,
        -0.8385099768638611,
        0.5448862910270691
      ],
      "translation": [
        0.4362665116786957,
        -2.220446049250313e-16,
        0.0
      ]
    },
    {
      "children": [
        111,
        114,
        117,
        120,
        123
      ],
      "name": "Bip001 R Hand_087",
      "rotation": [
        0.7284459471702576,
        -0.006092304363846779,
        -0.12937277555465698,
        0.6727496385574341
      ],
      "translation": [
        0.3223537802696228,
        1.6653345369377348e-16,
        0.0
      ]
    },
    {
      "children": [
        112
      ],
      "name": "Bip001 R Finger0_088",
      "rotation": [
        0.6464449763298035,
        0.555088460445404,
        0.20395134389400482,
        -0.4820680022239685
      ],
      "translation": [
        0.08020639419555664,
        0.054456766694784164,
        0.05198220908641815
      ]
    },
    {
      "children": [
        113
      ],
      "name": "Bip001 R Finger01_089",
      "rotation": [
        0.008400646969676018,
        -0.005178527906537056,
        0.41338086128234863,
        0.9105047583580017
      ],
      "translation": [
        0.05905158817768097,
        2.365112123925428e-07,
        -1.182556061962714e-07
      ]
    },
    {
      "name": "Bip001 R Finger02_090",
      "rotation": [
        -0.00030115910340100527,
        0.0016958152409642935,
        0.4209308922290802,
        0.9070910811424255
      ],
      "translation": [
        0.05768035352230072,
        2.220446049250313e-16,
        0.0
      ]
    },
    {
      "children": [
        115
      ],
      "name": "Bip001 R Finger1_091",
      "rotation": [
        -0.15533661842346191,
        -0.10616569221019745,
        0.6323590278625488,
        0.7514795064926147
      ],
      "translation": [
        0.2210407704114914,
        -0.006444516591727734,
        0.048381857573986053
      ]
    },
    {
      "children": [
        116
      ],
      "name": "Bip001 R Finger11_092",
      "rotation": [
        0.05541212484240532,
        -0.011041192337870598,
        0.5205583572387695,
        0.8519545793533325
      ],
      "translation": [
        0.069495789706707,
        0.0,
        2.220446049250313e-16
      ]
    },
    {
      "name": "Bip001 R Finger12_093",
      "rotation": [
        -0.006832905113697052,
        0.0366673544049263,
        0.5995737314224243,
        0.7994499206542969
      ],
      "translation": [
        0.05538051947951317,
        1.182556061962714e-07,
        -1.1102230246251565e-16
      ]
    },
    {
      "children": [
        118
      ],
      "name": "Bip001 R Finger2_094",
      "rotation": [
        -0.08012571185827255,
        -0.08476556092500687,
        0.6274794936180115,
        0.7698469758033752
      ],
      "translation": [
        0.2281976044178009,
        -0.0040415627881884575,
        0.0007283362792804837
      ]
    },
    {
      "children": [
        119
      ],
      "name": "Bip001 R Finger21_095",
      "rotation": [
        0.006492164917290211,
        -0.0018917240668088198,
        0.6253889203071594,
        0.7802839279174805
      ],
      "translation": [
        0.0768803209066391,
        2.365112123925428e-07,
        0.0
      ]
    },
    {
      "name": "Bip001 R Finger22_096",
      "rotation": [
        -0.0010516387410461903,
        0.005105452612042427,
        0.3973919153213501,
        0.9176341891288757
      ],
      "translation": [
        0.05339500680565834,
        -8.869170642356039e-08,
        -1.1102230246251565e-16
      ]
    },
    {
      "children": [
        121
      ],
      "name": "Bip001 R Finger3_097",
      "rotation": [
        -0.0029920602682977915,
        -0.07162608206272125,
        0.6544576287269592,
        0.752692461013794
      ],
      "translation": [
        0.22454753518104553,
        0.002294217934831977,
        -0.04606259986758232
      ]
    },
    {
      "children": [
        122
      ],
      "name": "Bip001 R Finger31_098",
      "rotation": [
        0.008147474378347397,
        -0.002125735627487302,
        0.5540614724159241,
        0.8324331641197205
      ],
      "translation": [
        0.06378462165594101,
        -2.365112123925428e-07,
        0.0
      ]
    },
    {
      "name": "Bip001 R Finger32_099",
      "rotation": [
        -0.0013745645992457867,
        0.006757689174264669,
        0.5037195086479187,
        0.8638397455215454
      ],
      "translation": [
        0.055380284786224365,
        -5.91278030981357e-08,
        0.0
      ]
    },
    {
      "children": [
        124
      ],
      "name": "Bip001 R Finger4_0100",
      "rotation": [
        0.05913859233260155,
        -0.06160993501543999,
        0.6449845433235168,
        0.7594088315963745
      ],
      "translation": [
        0.20260000228881836,
        0.017167935147881508,
        -0.08747582882642746
      ]
    },
    {
      "children": [
        125
      ],
      "name": "Bip001 R Finger41_0101",
      "rotation": [
        0.000486702483613044,
        -0.00012293945474084467,
        0.5557651519775391,
        0.8313391804695129
      ],
      "translation": [
        0.05215824767947197,
        -2.365112123925428e-07,
        2.956390154906785e-08
      ]
    },
    {
      "name": "Bip001 R Finger42_0102",
      "rotation": [
        -0.00012907067139167339,
        0.00038279948057606816,
        0.41012510657310486,
        0.9120292067527771
      ],
      "translation": [
        0.04615043103694916,
        -2.220446049250313e-16,
        -2.956390154906785e-08
      ]
    },
    {
      "children": [
        127
      ],
      "name": "Bip001 R ForeTwist_0103",
      "rotation": [
        0.0056852311827242374,
        -0.008748895488679409,
        -0.8384643197059631,
        0.544856607913971
      ],
      "translation": [
        0.4362665116786957,
        -2.220446049250313e-16,
        0.0
      ]
    },
    {
      "name": "Bip001 R ForeTwist1_0104",
      "rotation": [
        0.01043384987860918,
        1.4744870213689865e-08,
        -1.5055823254783718e-08,
        0.9999455809593201
      ],
      "translation": [
        0.16117683053016663,
        -5.91278030981357e-08,
        0.0
      ]
    },
    {
      "children": [
        129,
        130
      ],
      "name": "Circle001_0105",
      "rotation": [
        -0.36787015199661255,
        1.0963383090256684e-08,
        -2.7712502514987136e-08,
        0.9298772811889648
      ],
      "translation": [
        3.5476682569424156e-07,
        4.375457592686871e-06,
        0.0
      ]
    },
    {
      "name": "bone_niuqu_00_0106",
      "rotation": [
        0.09404024481773376,
        4.904581185627421e-09,
        5.192294594280611e-08,
        0.9955685138702393
      ],
      "scale": [
        1.0,
        0.9999989867210388,
        1.0000009536743164
      ],
      "translation": [
        -4.730224191007437e-06,
        -3.6067960991204018e-06,
        4.611968506651465e-06
      ]
    },
    {
      "name": "bone_niuqu_02_0107",
      "rotation": [
        0.27879413962364197,
        4.569794853637177e-08,
        1.5741387926482275e-07,
        0.9603508710861206
      ],
      "scale": [
        0.9999989867210388,
        1.0,
        1.0000009536743164
      ],
      "translation": [
        0.24435676634311676,
        -3.0746457468922017e-06,
        4.8484798753634095e-06
      ]
    },
    {
      "name": "niuqu_shouzhou_R_0108",
      "rotation": [
        8.310717447557181e-08,
        -1.0073820000400246e-08,
        0.2409576177597046,
        0.9705356359481812
      ],
      "scale": [
        1.0000009536743164,
        1.0,
        1.0
      ],
      "translation": [
        0.4362679421901703,
        3.4294125725864433e-06,
        1.7738341284712078e-06
      ]
    },
    {
      "name": "hit_pos_0109",
      "rotation": [
        3.469446951953614e-18,
        -6.938893903907228e-18,
        9.974659986866641e-18,
        1.0
      ]
    },
    {
      "name": "Point001_0110",
      "rotation": [
        4.7310629724961473e-07,
        -0.0002815709449350834,
        -0.0006797316018491983,
        0.9999998211860657
      ],
      "translation": [
        4.8484798753634095e-06,
        3.252029046052485e-07,
        -0.22009998559951782
      ]
    },
    {
      "name": "Point004_0111",
      "rotation": [
        -0.0002815728075802326,
        -4.730937632757559e-07,
        0.9999998211860657,
        0.0006797716487199068
      ],
      "scale": [
        -1.0,
        -1.0,
        -1.0
      ],
      "translation": [
        4.730224191007437e-06,
        -2.956390119379648e-07,
        0.2201000154018402
      ]
    },
    {
      "children": [
        136
      ],
      "name": "yaodai_00_0112",
      "rotation": [
        0.0063865901902318,
        0.7196143269538879,
        0.6899529099464417,
        0.07797067612409592
      ],
      "scale": [
        1.0000009536743164,
        1.0,
        1.0
      ],
      "translation": [
        0.11277410387992859,
        0.1797569990158081,
        -0.027640456333756447
      ]
    },
    {
      "children": [
        137
      ],
      "name": "yaodai_02_0113",
      "rotation": [
        -2.3188236752957891e-07,
        1.4358396072111645e-07,
        -0.04034953936934471,
        0.9991856217384338
      ],
      "scale": [
        0.9999989867210388,
        1.0000009536743164,
        1.0
      ],
      "translation": [
        0.09772347658872604,
        -3.39984865149745e-07,
        7.095336513884831e-07
      ]
    },
    {
      "children": [
        138
      ],
      "name": "yaodai_03_0114",
      "rotation": [
        -4.6995603497634875e-07,
        1.2421057249412115e-07,
        -0.01062721200287342,
        0.9999435544013977
      ],
      "scale": [
        1.0,
        1.0,
        0.9999989867210388
      ],
      "translation": [
        0.11412564665079117,
        -4.4345853211780195e-08,
        5.91278030981357e-08
      ]
    },
    {
      "name": "yaodai_04_0115",
      "rotation": [
        -2.2881959438336708e-08,
        -2.9397256184893195e-08,
        -0.01790911704301834,
        0.999839723110199
      ],
      "scale": [
        1.0000009536743164,
        0.9999989867210388,
        1.0
      ],
      "translation": [
        0.10374528914690018,
        -1.921653591807626e-07,
        2.365112123925428e-07
      ]
    },
    {
      "children": [
        140
      ],
      "name": "yaodai_01_0116",
      "rotation": [
        0.1110769733786583,
        0.6184331774711609,
        0.7779291868209839,
        0.005337272770702839
      ],
      "scale": [
        1.0000009536743164,
        1.0,
        1.0
      ],
      "translation": [
        0.1209530159831047,
        0.17778435349464417,
        0.02854093164205551
      ]
    },
    {
      "children": [
        141
      ],
      "name": "yaodai_05_0117",
      "rotation": [
        -0.04560857638716698,
        0.03323221206665039,
        0.019846608862280846,
        0.9982091784477234
      ],
      "scale": [
        1.0,
        0.9999989867210388,
        1.0
      ],
      "translation": [
        0.12560507655143738,
        -5.91278030981357e-08,
        -6.50405809210497e-07
      ]
    },
    {
      "children": [
        142
      ],
      "name": "yaodai_06_0118",
      "rotation": [
        2.70969024995793e-07,
        1.1718240244817935e-07,
        -0.007492737844586372,
        0.9999719262123108
      ],
      "translation": [
        0.11388180404901505,
        -1.1677741440507816e-06,
        -1.7147062862932216e-06
      ]
    },
    {
      "name": "yaodai_07_0119",
      "rotation": [
        6.70551330017588e-08,
        5.960470161880949e-08,
        3.1292489666157053e-07,
        1.0
      ],
      "translation": [
        0.11638231575489044,
        5.764960633314331e-07,
        3.5476682569424156e-07
      ]
    },
    {
      "name": "eff_guadian_buff_body_0120"
    },
    {
      "children": [
        145
      ],
      "name": "Bone033_0121",
      "rotation": [
        0.07522466778755188,
        0.12340940535068512,
        0.060712818056344986,
        0.9876362085342407
      ],
      "translation": [
        0.15150222182273865,
        2.4667623043060303,
        0.30293217301368713
      ]
    },
    {
      "children": [
        146
      ],
      "name": "Bone034_0122",
      "rotation": [
        -0.5265270471572876,
        0.43394097685813904,
        -0.11149339377880096,
        0.7225189805030823
      ],
      "translation": [
        0.19059573113918304,
        0.0,
        -2.956390154906785e-08
      ]
    },
    {
      "children": [
        147
      ],
      "name": "Bone035_0123",
      "rotation": [
        0.2977033257484436,
        0.24723820388317108,
        0.05489708483219147,
        0.9204522371292114
      ],
      "translation": [
        0.23414982855319977,
        0.0,
        -4.440892098500626e-16
      ]
    },
    {
      "children": [
        148
      ],
      "name": "Bone036_0124",
      "rotation": [
        -0.08327838778495789,
        0.16762582957744598,
        0.05150905251502991,
        0.9809756875038147
      ],
      "translation": [
        0.2692379653453827,
        0.0,
        5.91278030981357e-08
      ]
    },
    {
      "children": [
        149
      ],
      "name": "Bone037_0125",
      "rotation": [
        0.030937373638153076,
        0.3803069591522217,
        -0.046004656702280045,
        0.923197329044342
      ],
      "translation": [
        0.278426855802536,
        0.0,
        2.956390154906785e-08
      ]
    },
    {
      "children": [
        150
      ],
      "name": "Bone038_0126",
      "rotation": [
        -0.17563948035240173,
        0.2608047425746918,
        0.09643562138080597,
        0.9443684816360474
      ],
      "translation": [
        0.25151824951171875,
        2.220446049250313e-16,
        2.956390154906785e-08
      ]
    },
    {
      "children": [
        151
      ],
      "name": "Bone039_0127",
      "rotation": [
        -0.1488616019487381,
        0.35650578141212463,
        -0.01181508507579565,
        0.9222820997238159
      ],
      "translation": [
        0.2843884229660034,
        4.440892098500626e-16,
        2.956390154906785e-08
      ]
    },
    {
      "children": [
        152
      ],
      "name": "Bone040_0128",
      "rotation": [
        0.05108197405934334,
        0.4124772250652313,
        0.06488274782896042,
        0.9072173833847046
      ],
      "translation": [
        0.2526049017906189,
        0.0,
        2.956390154906785e-08
      ]
    },
    {
      "children": [
        153
      ],
      "name": "Bone041_0129",
      "rotation": [
        -0.07592395693063736,
        0.2598259449005127,
        -0.012525218538939953,
        0.9625846147537231
      ],
      "translation": [
        0.27203527092933655,
        -1.182556061962714e-07,
        5.91278030981357e-08
      ]
    },
    {
      "children": [
        154
      ],
      "name": "Bone042_0130",
      "rotation": [
        0.05060082674026489,
        0.4083973169326782,
        -0.08209627121686935,
        0.9076956510543823
      ],
      "translation": [
        0.2680317461490631,
        0.0,
        -1.1102230246251565e-16
      ]
    },
    {
      "children": [
        155
      ],
      "name": "Bone043_0131",
      "rotation": [
        0.002254498889669776,
        0.39913010597229004,
        -0.061847053468227386,
        0.9148032665252686
      ],
      "translation": [
        0.27014753222465515,
        0.0,
        -2.956390154906785e-08
      ]
    },
    {
      "children": [
        156
      ],
      "name": "Bone044_0132",
      "rotation": [
        -0.09749322384595871,
        0.3079213500022888,
        -0.04874484986066818,
        0.9451473355293274
      ],
      "translation": [
        0.2735804319381714,
        -2.220446049250313e-16,
        -5.91278030981357e-08
      ]
    },
    {
      "children": [
        157
      ],
      "name": "Bone045_0133",
      "rotation": [
        -0.0865834429860115,
        0.405759334564209,
        -0.16204926371574402,
        0.8953226804733276
      ],
      "translation": [
        0.25927355885505676,
        1.182556061962714e-07,
        2.956390154906785e-08
      ]
    },
    {
      "children": [
        158
      ],
      "name": "Bone046_0134",
      "rotation": [
        -0.029334010556340218,
        0.27572205662727356,
        0.086585134267807,
        0.9568802714347839
      ],
      "translation": [
        0.27271148562431335,
        1.182556061962714e-07,
        2.7755575615628914e-17
      ]
    },
    {
      "children": [
        159
      ],
      "name": "Bone047_0135",
      "rotation": [
        0.03518679738044739,
        0.4188685715198517,
        -0.16555216908454895,
        0.8921343684196472
      ],
      "translation": [
        0.2735542058944702,
        -2.220446049250313e-16,
        0.0
      ]
    },
    {
      "children": [
        160
      ],
      "name": "Bone048_0136",
      "rotation": [
        -0.22020205855369568,
        0.45222386717796326,
        -0.03277090564370155,
        0.8636727929115295
      ],
      "translation": [
        0.2299158275127411,
        -2.220446049250313e-16,
        2.956390154906785e-08
      ]
    },
    {
      "name": "Bone049_0137",
      "rotation": [
        9.284902198199498e-18,
        2.3283067140944524e-10,
        -3.725290742551124e-09,
        1.0
      ],
      "translation": [
        0.2840995788574219,
        1.182556061962714e-07,
        2.956390154906785e-08
      ]
    },
    {
      "name": "dadao_0138",
      "rotation": [
        0.9366680979728699,
        0.06890245527029037,
        0.337136834859848,
        -0.06514669209718704
      ],
      "scale": [
        1.0,
        1.0000009536743164,
        1.0
      ],
      "translation": [
        -0.339152455329895,
        2.494957208633423,
        -0.6180890798568726
      ]
    },
    {
      "name": "niuqu_spine_01_0139",
      "rotation": [
        0.7067281603813171,
        -0.6175712943077087,
        -0.023136593401432037,
        -0.3443918228149414
      ],
      "scale": [
        0.8343709707260132,
        1.0,
        1.0
      ],
      "translation": [
        -0.10092329978942871,
        1.7408113479614258,
        -0.2053435891866684
      ]
    },
    {
      "name": "niuqu_spine_02_0140",
      "rotation": [
        -0.5921407341957092,
        0.30787771940231323,
        -0.3864833116531372,
        0.6365621089935303
      ],
      "scale": [
        0.994933009147644,
        1.0,
        1.0
      ],
      "translation": [
        0.13198280334472656,
        1.7636841535568237,
        0.16749367117881775
      ]
    },
    {
      "name": "xiaodao_0141",
      "rotation": [
        -0.6722068786621094,
        0.08954352885484695,
        0.1290883868932724,
        0.7235026359558105
      ],
      "scale": [
        9.999999747378752e-05,
        9.999999747378752e-05,
        9.999999747378752e-05
      ],
      "translation": [
        0.15157873928546906,
        2.4338417053222656,
        0.31380534172058105
      ]
    },
    {
      "matrix": [
        1.0,
        0.0,
        0.0,
        0.0,
        0.0,
        2.220446049250313e-16,
        -1.0,
        0.0,
        0.0,
        1.0,
        2.220446049250313e-16,
        0.0,
        0.0,
        0.0,
        0.0,
        1.0
      ],
      "name": "role_fuheishener_body"
    },
    {
      "matrix": [
        1.0,
        0.0,
        0.0,
        0.0,
        0.0,
        2.220446049250313e-16,
        -1.0,
        0.0,
        0.0,
        1.0,
        2.220446049250313e-16,
        0.0,
        0.0,
        0.0,
        0.0,
        1.0
      ],
      "name": "role_fuheishener_face"
    },
    {
      "matrix": [
        1.0,
        0.0,
        0.0,
        0.0,
        0.0,
        2.220446049250313e-16,
        -1.0,
        0.0,
        0.0,
        1.0,
        2.220446049250313e-16,
        0.0,
        0.0,
        0.0,
        0.0,
        1.0
      ],
      "name": "role_fuheishener_hair"
    },
    {
      "matrix": [
        1.0,
        0.0,
        0.0,
        0.0,
        0.0,
        2.220446049250313e-16,
        -1.0,
        0.0,
        0.0,
        1.0,
        2.220446049250313e-16,
        0.0,
        0.0,
        0.0,
        0.0,
        1.0
      ],
      "name": "role_fuheishener_skin"
    },
    {
      "matrix": [
        1.0,
        0.0,
        0.0,
        0.0,
        0.0,
        2.220446049250313e-16,
        -1.0,
        0.0,
        0.0,
        1.0,
        2.220446049250313e-16,
        0.0,
        0.0,
        0.0,
        0.0,
        1.0
      ],
      "name": "role_fuheishener_wuqi1"
    },
    {
      "matrix": [
        1.0,
        0.0,
        0.0,
        0.0,
        0.0,
        2.220446049250313e-16,
        -1.0,
        0.0,
        0.0,
        1.0,
        2.220446049250313e-16,
        0.0,
        0.0,
        0.0,
        0.0,
        1.0
      ],
      "name": "role_fuheishener_wuqi2"
    },
    {
      "matrix": [
        1.0,
        0.0,
        0.0,
        0.0,
        0.0,
        2.220446049250313e-16,
        -1.0,
        0.0,
        0.0,
        1.0,
        2.220446049250313e-16,
        0.0,
        0.0,
        0.0,
        6.190851564724653e-08,
        1.0
      ],
      "name": "role_fuheishener_zhouling"
    }
  ],
  "samplers": [
    {
      "magFilter": 9729,
      "minFilter": 9987,
      "wrapS": 10497,
      "wrapT": 10497
    }
  ],
  "scene": 0,
  "scenes": [
    {
      "name": "Sketchfab_Scene",
      "nodes": [
        0
      ]
    }
  ],
  "skins": [
    {
      "inverseBindMatrices": 29,
      "joints": [
        7,
        22,
        23,
        24,
        25,
        26,
        27,
        28,
        29,
        30,
        31,
        32,
        33,
        34,
        35,
        36,
        37,
        38,
        39,
        40,
        41,
        42,
        43,
        44,
        45,
        46,
        47,
        48,
        49,
        50,
        51,
        52,
        53,
        54,
        55,
        56,
        57,
        58,
        59,
        60,
        61,
        62,
        63,
        64,
        65,
        66,
        67,
        68,
        69,
        70,
        71,
        72,
        73,
        74,
        75,
        76,
        77,
        78,
        79,
        80,
        81,
        82,
        83,
        84,
        85,
        86,
        87,
        88,
        89,
        90,
        91,
        92,
        93,
        94,
        95,
        96,
        97,
        98,
        99,
        100,
        101,
        102,
        103,
        104,
        105,
        106,
        107,
        108,
        109,
        110,
        111,
        112,
        113,
        114,
        115,
        116,
        117,
        118,
        119,
        120,
        121,
        122,
        123,
        124,
        125,
        126,
        127,
        128,
        129,
        130,
        131,
        132,
        133,
        134,
        135,
        136,
        137,
        138,
        139,
        140,
        141,
        142,
        143,
        144,
        145,
        146,
        147,
        148,
        149,
        150,
        151,
        152,
        153,
        154,
        155,
        156,
        157,
        158,
        159,
        160,
        161,
        162,
        163,
        164
      ],
      "skeleton": 7
    }
  ],
  "textures": [
    {
      "sampler": 0,
      "source": 0
    },
    {
      "sampler": 0,
      "source": 1
    },
    {
      "sampler": 0,
      "source": 2
    },
    {
      "sampler": 0,
      "source": 3
    },
    {
      "sampler": 0,
      "source": 4
    },
    {
      "sampler": 0,
      "source": 5
    },
    {
      "sampler": 0,
      "source": 6
    },
    {
      "sampler": 0,
      "source": 7
    }
  ]
}
